/* XPM */
static char * Tile2_xpm[] = {
"32 32 3 1",
" 	c #C0CBDC",
".	c #8B9BB4",
"+	c #5A6988",
"       .  ++++    ++...++++...++",
"          ++      ++ .      .  +",
"+...++++++..   +++++..   .  .   ",
"  ++     +....++..+         +   ",
"  ++ .   +++++.++++ .       +   ",
"+++.     +.+++++++.     .+++++++",
" .+....+++++     +..++++++++  ..",
"..+ ...++..+.    +  ++++  ++++..",
"+++++++++.++     +  +  ++...+.++",
"..++++  +++...++++..+  ++.      ",
"  + +.  ......+   ++++++++     .",
"  +++......++++...++++++++..    ",
"  +++... .      ...   . +  .    ",
"++  +. ...      ...     ..++...+",
" +..+. .          .     ..++++++",
"++++++ +          ++++....+  +++",
"  ++++++ ..    .. +  +  +++  +. ",
"  ++++++   .   .. +  ++++.+..+  ",
"  .+....          ++++.. ++..+..",
"...+.  ..++++++....++++++++.++++",
"    .  ..+  +.  .. +       .    ",
"  . .  ..++++.  ++++       + .  ",
"    +  ++.++++++++         .    ",
"    +++++++++... . .   +++..    ",
"    +++++     .. .     +..++ .  ",
"    .  .+  .  ++++++++++.   ++++",
"++...  .+     ..+.+ .  ++   ++..",
".+....+++     ..+++ ..++++++   .",
".+. ..+.+++...    +   .++  +   +",
"+++++++++++...  . +   ++++++++++",
"+++++++++++...    +   +      +.+",
"          ++++    +++++      + +"};
