/* XPM */
static char * collectible_xpm[] = {
"32 32 7 1",
" 	c #193C3E",
".	c #3E8948",
"+	c #265C42",
"@	c #63C74D",
"#	c #FDAE35",
"$	c #BF4830",
"%	c #FFD943",
"         .  +  .  ++    ..+++   ",
"+   . + .  +  +.++++. +..+++   .",
" + .  ++.++ +. . +++++++.+++  . ",
"... +++++.++.@.++++.+++.++++. ++",
"  . + +++++.@#######$$..+++. +.+",
"+ .++++++++##$########$$+++ @..+",
"++ . +++ +#$###########$$. @+.++",
"+++.  +++#$##########%%#$$ @+.++",
"++++.++.#$##########%%%%#$$..+++",
"++. +.. #$#####$##$%%%%##$$+.+++",
"+++...  #$#####$##$%%%###$$...++",
".++++ .#$#####$$$$$$%#####$$....",
"+.+.+++#$####$$#%%%$$#####$$+.+.",
".+...+@#$####$$%%%%$$#####$$ ...",
"@..+.+.#$####$$%%%########$$+ ++",
"+......#$####$$$%#########$$+++ ",
"+...+@.#$###%%%$$$$#######$$++ +",
"++.  @+#$##%%%%###$$######$$@+++",
"+++  .@#$#%%%%#####$$#####$$++.+",
"++ + @.#$#%%%$$####$$#####$$.++.",
"+   +@+#$#%%#$$####$$#####$$.+++",
"++ + .++#$####$$$$$$#####$$ ++++",
". ++ @++#$#####$##$######$$++++ ",
"+. +@+ +#$#####$##$######$$+++++",
"++ +.++.+#$#############$$++++  ",
"++. .+. ++#$###########$$++.   +",
"+++. . ++ +##$########$$++.   ++",
"+++ ++. +    #######$$ ++ +   + ",
"+. .+++.++ +  + ..+. +++.+.. + +",
"+ .+++++.    + .  ..  + + .+.+++",
".+ .++ + ++ + . +++++  + .+++   ",
" +  . + +. +  +.++++++  .+++    "};
