/* XPM */
static char * enemy_invert2_xpm[] = {
"32 32 14 1",
" 	c #193C3E",
".	c #3E8948",
"+	c #265C42",
"@	c #63C74D",
"#	c #B9704F",
"$	c #EBD4AB",
"%	c #733D3B",
"&	c #A98B72",
"*	c #AF9277",
"=	c #7C4E46",
"-	c #D9B590",
";	c #854A3F",
">	c #DAC29D",
",	c #C48B69",
"         .  +  .  ++    ..+++   ",
"+   . + .  +  +.++++. +..+++   .",
" + .  ++.++ +. . +++++++.+++  . ",
"... +++++.++.@.++++.+++.++++. ++",
"  . + +++++.@##$$$##....+++. +.+",
"+ .++++++++##$$$$$$$##@.+++ @..+",
"++ . +++ +#$$$$$$$$$$$#.+. @+.++",
"+++.  +++#$$$$$$$$$$$$$#++ @+.++",
"++++.++.+#$$$$$$$$$$$$$#++@..+++",
"++. +..  #$$$$$$$$$$$$$#+@.+.+++",
"+++...  #$$#$$$$$$$$$#$$#++...++",
".++++ .+#$$#$$$$$$$$$#$$#@@.....",
"+.+.+++@#$#$$$$$$$$$$$#$#..++.+.",
".+...+@.#$$$%%%$$$%%%$$$# .. ...",
"@..+.+..#$$%$$&$$$&$$%$$# . + ++",
"+......+#$$%*&=$%$=$-%$$#+.++++ ",
"+...+@.+.#$%%%$$%$$%;%$#+.++++ +",
"++.  @++#$$$$$$%%%$>>$$$#..@@+++",
"+++  .@+.#$$$$$%$%$$$$$#+.  ++.+",
"++ + @..++###$$$$$$$###..  +.++.",
"+   +@+.++#$#$$-##-$#$#+. + .+++",
"++ + .++++#$#,#######$#..+  ++++",
". ++ @++++#$$#######$$#+++.++++ ",
"+. +@+ +++#$#$$###$$#$# ..++++++",
"++ +.++.+++#$$#$$$#$$#.+++++++  ",
"++. .+. ++++#$$$$$$$#.+++++.   +",
"+++. . ++ + #$$$$$$$#. .++.   ++",
"+++ ++. +    #$$$$$#.+ ++ +   + ",
"+. .+++.++ +  + ..+. +++.+.. + +",
"+ .+++++.    + .  ..  + + .+.+++",
".+ .++ + ++ + . +++++  + .+++   ",
" +  . + +. +  +.++++++  .+++    "};
