/* XPM */
static char * exit_xpm[] = {
"32 32 4 1",
" 	c None",
".	c #FEE861",
"+	c #D77643",
"@	c #FDAE35",
"                                ",
"                                ",
"                                ",
"                                ",
"                                ",
"                                ",
"                                ",
"                                ",
"                    ...         ",
"                  ..+++..       ",
"                  +++++++       ",
"                 .++   ++.      ",
"                 ++     ++      ",
"                 ++     ++      ",
"      @@@@@@@@@@@++     ++      ",
"      ...........++     ++      ",
"      @@@@@@@@@@@++     ++      ",
"      +++++++++++++     ++      ",
"       +++       ++     ++      ",
"       ++        ++.   .++      ",
"       ++         ++...++       ",
"                  +++++++       ",
"                  +++++         ",
"                                ",
"                                ",
"                                ",
"                                ",
"                                ",
"                                ",
"                                ",
"                                ",
"                                "};
