/* XPM */
static char * exit_xpm[] = {
"32 32 7 1",
" 	c #193C3E",
".	c #3E8948",
"+	c #265C42",
"@	c #63C74D",
"#	c #FEE861",
"$	c #D77643",
"%	c #FDAE35",
"         .  +  .  ++    ..+++   ",
"+   . + .  +  +.++++. +..+++   .",
" + .  ++.++ +. . +++++++.+++  . ",
"... +++++.++.@.++++.+++.++++. ++",
"  . + +++++.@.++.+++....+++. +.+",
"+ .++++++++.. +++++.+.@.+++ @..+",
"++ . +++ +.+ +  +.++..@.+. @+.++",
"+++.  +++++++ +.+++.+@.+++ @+.++",
"++++.++.++ + ++ +.++###+++@..+++",
"++. +..    .+ .+++##$$$##@.+.+++",
"+++...   ++++ ++..$$$$$$$++...++",
".++++ .+..++ +++.#$$++.$$#@.....",
"+.+.+++@...+@++++$$.++++$$.++.+.",
".+...+@......@@++$$.+++@$$.. ...",
"@..+.+%%%%%%%%%%%$$..+@ $$. + ++",
"+.....###########$$..@ +$$.++++ ",
"+...+@%%%%%%%%%%%$$+@.++$$++++ +",
"++.  @$$$$$$$$$$$$$ ++++$$.@@+++",
"+++  .@$$$+++.++.$$+.++.$$  ++.+",
"++ + @.$$+++++.. $$#+++#$$ +.++.",
"+   +@+$$+++++. . $$###$$ + .+++",
"++ + .+++++++.++  $$$$$$$+  ++++",
". ++ @++++++.+  + $$$$$+++.++++ ",
"+. +@+ +++.+     +++.@+ ..++++++",
"++ +.++.+++..  ++++..@.+++++++  ",
"++. .+. ++++ .   ++.@.+++++.   +",
"+++. . ++ +   . + + +. .++.   ++",
"+++ ++. +      . ++ .+ ++ +   + ",
"+. .+++.++ +  + ..+. +++.+.. + +",
"+ .+++++.    + .  ..  + + .+.+++",
".+ .++ + ++ + . +++++  + .+++   ",
" +  . + +. +  +.++++++  .+++    "};
