/* XPM */
static char * player_xpm[] = {
"32 32 11 1",
" 	c #193C3E",
".	c #3E8948",
"+	c #265C42",
"@	c #63C74D",
"#	c #04193F",
"$	c #0FEFFB",
"%	c #0696DB",
"&	c #03396B",
"*	c #FCFEFE",
"=	c #C3242F",
"-	c #E7333B",
"         .  +  .  ++    ..+++   ",
"+   . + .  +  +.++++. +..+++   .",
" + .  ++.++ +. . +++++++.+++  . ",
"... +++++.++.@.++++.+++.++++. ++",
"  . + +++++.@.++.+++....+++. +.+",
"+ .++++++++.. +++++.+.@.+++ @..+",
"++ . +++ +.+ #####++..@.+. @+.++",
"+++.  +++++##$$$%%##+@.+++ @+.++",
"++++.++.++#$$$$$$%&&#.++++@..+++",
"++. +..  #$$$$$$$##&&#+++@.+.+++",
"+++...  #$$$$$$$$##&&&#+@++...++",
".++++ .+#$$$###$$%%&&##+.@@.....",
"+.+.+++#$$$##**#$%%%##*#@..++.+.",
".+...+@#$$$##**#$%%%##*#  .. ...",
"@..+.+.#$$$#####$%%%####  . + ++",
"+......#$$$$###$%%%%&### +.++++ ",
"+...+@.#$$$$$$$$%%%%&&&#+.++++ +",
"++.  @++#$$$$$$%%%%&&&#++..@@+++",
"+++  .@+#$$$$%%%%##&&&#.+.  ++.+",
"++ + @..+#%%%%%%%%%&&#+..  +.++.",
"+   +@+.+#==%%%%%%&&&#++. + .+++",
"++ + .+++#&-===&&&&&=#@..+  ++++",
". ++ @++#%%&---=====-#++++.++++ ",
"+. +@+ +#%%%#--------#+ ..++++++",
"++ +.++#%%%%&#------#&#+++++++  ",
"++. .+.#%%%%&&##----&&#++++.   +",
"+++. . #%%%&%%&&##-#&&#.++.   ++",
"+++ ++. #&&%%%%%&&#&## ++ +   + ",
"+. .+++.+#%%%%%&&&&&#+++.+.. + +",
"+ .+++++.#%%%%##&&&&# + + .+.+++",
".+ .++ + #%%%%##&&&#+  + .+++   ",
" +  . + +#%%%#+#&&&#++  .+++    "};
